<svg width="336" height="800" viewBox="0 0 336 800" fill="none" xmlns="http://www.w3.org/2000/svg">
<path d="M172.128 141.327C211.155 141.327 242.792 109.69 242.792 70.6636C242.792 31.6372 211.155 0 172.128 0C133.102 0 101.465 31.6372 101.465 70.6636C101.465 109.69 133.102 141.327 172.128 141.327Z" fill="#010002"/>
<path d="M176.611 655.6V759.978L176.899 760.266C177.188 782.295 194.99 799.904 216.954 799.904C237.541 799.904 254.319 784.312 256.528 764.364C253.871 762.7 250.989 761.387 248.428 759.69C212.792 735.644 186.761 698.664 176.611 655.6Z" fill="#010002"/>
<path d="M256.527 764.5C256.527 764.5 256.912 489.5 256.912 466.757L256.848 252.653H276.251V414.248C276.251 414.344 276.251 414.44 276.251 414.472C276.251 430.993 289.602 444.313 306.091 444.313C322.613 444.313 335.964 430.993 335.964 414.472C335.964 414.44 335.964 414.344 335.964 414.248V240.454C329.368 162.971 239.494 164.092 239.494 164.092H97.8468C-3.58601 166.013 0.0320156 240.454 0.0320156 240.454L0 414.248H0.0960468C0.032011 414.696 0.0320156 415.048 0.0320156 415.528C0.0320156 432.018 13.3835 445.369 29.8727 445.369C46.3299 445.369 59.6174 432.018 59.6174 415.528C59.6174 415.048 59.6174 414.728 59.5854 414.248L59.6174 253.39H78.3159L78.0917 759.625C78.0917 781.814 96.0858 800 118.338 800C140.591 800 158.585 781.91 158.585 759.625V432.978H176.579V760.161C256.527 760.161 256.527 764.5 256.527 764.5Z" fill="#010002"/>
</svg>
