<svg width="800" height="800" viewBox="0 0 800 800" fill="none" xmlns="http://www.w3.org/2000/svg">
<path d="M404.128 141.327C443.155 141.327 474.792 109.69 474.792 70.6636C474.792 31.6372 443.155 0 404.128 0C365.102 0 333.465 31.6372 333.465 70.6636C333.465 109.69 365.102 141.327 404.128 141.327Z" fill="#010002"/>
<path d="M408.611 655.6V759.978L408.899 760.266C409.188 782.295 426.99 799.904 448.954 799.904C469.541 799.904 486.319 784.312 488.528 764.364C485.871 762.7 482.989 761.387 480.428 759.69C444.792 735.644 418.761 698.664 408.611 655.6Z" fill="#010002"/>
<path d="M488.527 764.5C488.527 764.5 488.912 489.5 488.912 466.757L488.848 252.653H508.251V414.248C508.251 414.344 508.251 414.44 508.251 414.472C508.251 430.993 521.602 444.313 538.091 444.313C554.613 444.313 567.964 430.993 567.964 414.472C567.964 414.44 567.964 414.344 567.964 414.248V240.454C561.368 162.971 471.494 164.092 471.494 164.092H329.847C228.414 166.013 232.032 240.454 232.032 240.454L232 414.248H232.096C232.032 414.696 232.032 415.048 232.032 415.528C232.032 432.018 245.383 445.369 261.873 445.369C278.33 445.369 291.617 432.018 291.617 415.528C291.617 415.048 291.617 414.728 291.585 414.248L291.617 253.39H310.316L310.092 759.625C310.092 781.814 328.086 800 350.338 800C372.591 800 390.585 781.91 390.585 759.625V432.978H408.579V760.161C488.527 760.161 488.527 764.5 488.527 764.5Z" fill="#010002"/>
</svg>
